<?xml version="1.0" encoding="UTF-8"?>
<svg version="1.1" xmlns="http://www.w3.org/2000/svg" width="700" height="602">
<path d="M0 0 C4.33607527 0.73139414 8.67534934 1.44333788 13.01422596 2.15788817 C20.28119407 3.35747135 27.54585431 4.57025362 34.8090868 5.79224181 C43.1809808 7.20068184 51.55554029 8.59222414 59.93188167 9.97395283 C68.90628454 11.45435896 77.87899286 12.94482153 86.85104561 14.43939924 C89.41651498 14.86622093 91.98224843 15.29142461 94.54803181 15.71635413 C98.5843728 16.3854974 102.61949595 17.06157616 106.65380192 17.74287772 C108.12634924 17.99056917 109.59925936 18.23611566 111.07256413 18.47926116 C126.46014467 21.02200376 138.66757165 23.58306973 148.19385242 36.8486383 C150.06885242 40.2861383 150.06885242 40.2861383 151.19385242 42.8486383 C156.80129497 39.80756496 161.84285051 36.2950056 166.94385242 32.4736383 C167.76297108 31.86657043 168.58208973 31.25950255 169.42603016 30.63403869 C173.73436351 27.43965329 178.02544655 24.22315647 182.30713367 20.99316955 C183.13696766 20.37168029 183.96680164 19.75019103 184.82178211 19.10986876 C186.39398458 17.93213587 187.96141845 16.74799764 189.52295399 15.55615783 C200.3196028 7.48615273 209.62818077 3.73772401 223.19385242 4.8486383 C233.22208043 7.3030997 240.48365154 13.00946875 245.96728992 21.60254455 C250.11736154 29.20219798 250.3329346 37.37269866 249.19385242 45.8486383 C245.29838525 58.39453792 236.08812567 65.06235528 226.13916492 72.75879455 C221.92046725 76.03799865 217.80600783 79.43740264 213.69385242 82.8486383 C208.00281513 87.56215624 202.26059153 92.19317955 196.43213367 96.73535705 C191.97296077 100.21717698 187.57646218 103.77106186 183.19385242 107.3486383 C178.25443117 111.38074658 173.28566006 115.36674682 168.25635242 119.2861383 C162.99629553 123.38801753 157.83134879 127.59441867 152.69385242 131.8486383 C147.00235302 136.56161262 141.26060797 141.19316674 135.43213367 145.73535705 C130.97295662 149.21718022 126.57660601 152.77123338 122.19385242 156.3486383 C116.62011755 160.89522779 111.02089221 165.40398446 105.34009266 169.81641173 C102.43161477 172.07649758 99.55950795 174.36475486 96.73682117 176.7314508 C82.61103133 188.45500339 67.11432273 195.39757444 48.50635242 195.3486383 C47.54535633 195.37699767 46.58436024 195.40535705 45.59424305 195.4345758 C36.54748302 195.45833616 28.62437906 192.80309881 20.19385242 189.8486383 C18.35098115 189.2142613 16.5079544 188.58033584 14.66479969 187.94678283 C8.20553859 185.71482503 1.76193008 183.43930785 -4.68114758 181.1611383 C-7.05246748 180.32490566 -9.42380568 179.48872489 -11.79516125 178.65259337 C-31.30220871 171.76632112 -50.7750772 164.78528621 -70.22643566 157.74332213 C-72.12734237 157.05751911 -74.02974584 156.37584888 -75.93371105 155.69858336 C-80.06541757 154.22613699 -84.16217814 152.72466473 -88.20897961 151.03149962 C-98.8759785 146.67788738 -108.71184061 145.94308243 -120.18554211 146.12134337 C-123.09567846 146.16168631 -126.00138473 146.14176184 -128.91161633 146.11621642 C-130.77751931 146.12376134 -132.64341239 146.13470041 -134.50927258 146.14941955 C-135.37070873 146.14243545 -136.23214489 146.13545135 -137.11968517 146.12825561 C-141.39880301 146.22911159 -143.18772853 146.31017184 -146.51220226 149.20483947 C-147.26920422 150.07729308 -148.02620617 150.94974669 -148.80614758 151.8486383 C-153.3550307 154.64524455 -157.18043276 155.28509835 -162.41450024 155.2497766 C-163.16056678 155.25657327 -163.90663331 155.26336994 -164.67530793 155.27037257 C-167.16478391 155.28929936 -169.653766 155.28691073 -172.14330578 155.28442931 C-173.93252728 155.29340971 -175.72174297 155.3036186 -177.51095104 155.31496215 C-182.3643822 155.3414384 -187.21765463 155.34849463 -192.07115102 155.35040951 C-195.10554128 155.35254357 -198.13989132 155.35895136 -201.17427158 155.36690116 C-211.76635197 155.39464727 -222.35831917 155.40690766 -232.95043468 155.4045465 C-242.81398498 155.40274461 -252.67704282 155.43439416 -262.54046851 155.48177749 C-271.01711661 155.5210434 -279.49360402 155.53709654 -287.97034234 155.53518027 C-293.02944266 155.53441643 -298.08810526 155.54290751 -303.14711475 155.57471442 C-307.90717585 155.60382535 -312.66638282 155.60395055 -317.42647457 155.58216453 C-319.16911159 155.57903522 -320.91180241 155.58606723 -322.65434742 155.6042459 C-338.92512345 155.76293438 -338.92512345 155.76293438 -345.16191864 150.58037448 C-350.99635333 144.43542627 -351.39563138 139.05491886 -351.35546398 130.73193908 C-351.36568584 129.63346648 -351.37590771 128.53499389 -351.38643932 127.40323424 C-351.41416875 123.78324947 -351.41232272 120.16402895 -351.40771008 116.5439508 C-351.41548756 114.01960508 -351.42415764 111.49526197 -351.43368053 108.97092223 C-351.4485916 103.68348158 -351.44831033 98.39631963 -351.43749523 93.1088922 C-351.42542178 87.01522918 -351.45003053 80.92249046 -351.49263537 74.8289851 C-351.53224452 68.94547868 -351.53819976 63.06233184 -351.53116512 57.17871261 C-351.5321897 54.68531539 -351.54263067 52.19190312 -351.56278896 49.69858718 C-351.5875584 46.20638324 -351.57391444 42.71629846 -351.55077648 39.22412658 C-351.56606396 38.20149718 -351.58135143 37.17886779 -351.59710217 36.12524962 C-351.49459868 29.10004484 -349.87889354 23.89444889 -344.80614758 18.8486383 C-339.82270251 15.42002239 -336.1215652 14.2605625 -330.03957653 14.32724547 C-329.28857201 14.31959438 -328.5375675 14.31194329 -327.76380527 14.30406034 C-325.26346908 14.28352851 -322.76406251 14.29135891 -320.26366711 14.29932189 C-318.46444383 14.29062168 -316.66522797 14.28025339 -314.86602306 14.26834655 C-309.98987194 14.24160696 -305.11403124 14.24040462 -300.2378211 14.24547315 C-296.16235458 14.24761544 -292.0869505 14.23783848 -288.01149738 14.22826231 C-278.39400888 14.20608573 -268.77667661 14.20518926 -259.15917492 14.21729064 C-249.24844075 14.22936954 -239.3382745 14.20474738 -229.42763722 14.1621505 C-220.90849322 14.12688527 -212.38952971 14.11492099 -203.87031543 14.12142599 C-198.78665684 14.12504694 -193.70340335 14.11982764 -188.61981106 14.09199691 C-183.83755144 14.06679464 -179.05617512 14.07076942 -174.27392864 14.09681869 C-172.52323765 14.10153972 -170.77248406 14.09611815 -169.02186489 14.07957244 C-153.08168884 13.93983029 -153.08168884 13.93983029 -146.34438419 19.26934791 C-144.80614758 20.8486383 -144.80614758 20.8486383 -142.80614758 23.8486383 C-139.96407545 24.299997 -139.96407545 24.299997 -136.61864758 24.21191955 C-135.36181164 24.21127501 -134.1049757 24.21063048 -132.81005383 24.20996642 C-132.15150402 24.20166808 -131.49295422 24.19336974 -130.81444836 24.18481994 C-128.84176104 24.16155825 -126.86880964 24.1659768 -124.89599133 24.17090392 C-109.32059962 24.08375778 -100.34916996 20.91787508 -88.11132336 11.49219298 C-59.89050174 -10.21819438 -33.16559894 -5.62173656 0 0 Z M-75.50536633 28.72754455 C-96.27771475 44.87380236 -112.77297306 44.88197711 -140.80614758 45.8486383 C-140.80614758 71.9186383 -140.80614758 97.9886383 -140.80614758 124.8486383 C-134.32989758 124.8073883 -127.85364758 124.7661383 -121.18114758 124.7236383 C-103.24747376 124.98629202 -88.90687119 127.33891055 -72.19286633 134.1142633 C-67.08256999 136.16477858 -61.90024069 138.00511778 -56.71239758 139.8486383 C-55.21322041 140.3819023 -55.21322041 140.3819023 -53.68375683 140.92593932 C-51.59940267 141.66721426 -49.51498472 142.40830986 -47.43050671 143.14923644 C-42.07640978 145.05929349 -36.73256123 146.99753881 -31.38817883 148.9345758 C-18.26250123 153.68758306 -5.12861372 158.41752589 8.0104723 163.13333678 C11.51955627 164.39343622 15.0277404 165.65601821 18.53589344 166.91870666 C20.67964208 167.68845906 22.82343839 168.45807876 24.96728992 169.22754455 C25.94720402 169.58083831 26.92711811 169.93413207 27.93672657 170.2981317 C29.28869381 170.78248183 29.28869381 170.78248183 30.66797352 171.27661681 C31.44982014 171.55763747 32.23166676 171.83865813 33.0372057 172.12819457 C44.47851175 175.95024714 58.38456686 175.06691408 69.19385242 169.8486383 C76.8551092 165.79785885 83.30448764 160.37398693 89.81885242 154.7314508 C93.13414216 151.87191725 96.54996525 149.15982304 100.00635242 146.4736383 C105.12051431 142.49333382 110.17427791 138.44761585 115.19385242 134.3486383 C120.13319602 130.31643665 125.10204691 126.33052811 130.13135242 122.4111383 C136.13229377 117.73150514 142.00348879 112.90505151 147.86401844 108.05127501 C152.95272625 103.84602743 158.10734476 99.73725873 163.31152821 95.67627501 C167.66825588 92.27348368 171.95902854 88.79742886 176.22900867 85.2861383 C184.81825363 78.22462466 193.43231252 71.19571259 202.19385242 64.3486383 C207.4485543 60.23450956 212.68015766 56.09276733 217.88135242 51.9111383 C218.90712391 51.09516173 218.90712391 51.09516173 219.95361805 50.2627008 C225.6655949 45.92807677 225.6655949 45.92807677 228.62744617 39.66504455 C228.63435693 35.6775379 228.52774604 33.40910258 226.44385242 29.9111383 C223.1388753 26.88157594 221.37379544 25.98221675 216.88135242 25.4736383 C209.83623425 26.19009099 204.35231181 31.07621319 198.88135242 35.2861383 C193.10228287 39.67717438 187.27662548 43.98986013 181.38135242 48.2236383 C175.120984 52.72389019 168.89390332 57.2656337 162.69385242 61.8486383 C155.81689006 66.93078712 148.90352033 71.95866718 141.96338367 76.95410705 C136.51301281 80.88255935 131.09718165 84.85578351 125.69385242 88.8486383 C118.79819152 93.94279987 111.87917969 99.00220041 104.91504383 104.00244689 C101.03626509 106.78789007 97.17759675 109.59592873 93.34619617 112.44629455 C92.54641346 113.0366046 91.74663074 113.62691466 90.92261219 114.23511291 C89.40322644 115.35735603 87.88897522 116.4866 86.38110828 117.62427306 C80.90165236 121.65221748 74.7554072 125.74592556 67.63135242 124.7861383 C59.56536503 123.45098339 54.66283669 118.63772917 48.85010242 113.2627008 C46.27911611 110.92612794 43.64464476 108.72060269 40.94385242 106.5361383 C35.89755312 102.4530927 30.96319574 98.25332718 26.05225086 94.00952697 C25.49312 93.52717589 24.93398914 93.04482482 24.35791492 92.54785705 C23.86758778 92.12335265 23.37726063 91.69884826 22.87207508 91.26148009 C22.3182616 90.7952423 21.76444813 90.32900451 21.19385242 89.8486383 C20.13098011 88.79072082 20.13098011 88.79072082 19.04663563 87.71143126 C15.10778706 85.13946596 11.99150644 85.29811098 7.38525867 85.34473205 C6.5409177 85.33531081 5.69657673 85.32588958 4.82664967 85.31618285 C2.13630232 85.28758345 -0.5531607 85.28445238 -3.24364758 85.2861383 C-5.93043466 85.28252346 -8.6165794 85.27290783 -11.30323315 85.24538207 C-12.9715573 85.22867607 -14.6400925 85.22565305 -16.30845165 85.23839355 C-21.19861347 85.19434732 -24.56784853 84.56024045 -28.80614758 81.8486383 C-30.02095347 79.4190265 -30.04222025 77.68479713 -30.11864758 74.9736383 C-30.17472179 73.67813048 -30.17472179 73.67813048 -30.23192883 72.3564508 C-29.65723797 68.97157436 -28.46968936 67.97341723 -25.80614758 65.8486383 C-23.03496265 65.34920955 -23.03496265 65.34920955 -19.78481579 65.34984374 C-18.55110744 65.34026641 -17.3173991 65.33068908 -16.04630566 65.32082152 C-14.68190807 65.3303189 -13.31751293 65.34017279 -11.95312023 65.35034728 C-10.51400217 65.34652364 -9.07488792 65.34090421 -7.6357832 65.33362365 C-4.53801725 65.32167146 -1.44059022 65.32216347 1.65718174 65.33221793 C6.55719419 65.34777663 11.45685844 65.33410181 16.35684681 65.31618285 C25.87622443 65.28535436 35.39549582 65.28386172 44.91491413 65.28583312 C57.02470966 65.28722562 69.13442322 65.27686217 81.24415839 65.23725539 C86.11314019 65.22233017 90.98181381 65.22258576 95.85080028 65.23473322 C98.88303496 65.23944936 101.9151521 65.23191619 104.94736767 65.22118926 C106.35100166 65.21878629 107.75465545 65.22150731 109.15826702 65.22979712 C111.0783354 65.24045673 112.99848392 65.23091833 114.91855335 65.22044921 C115.99185587 65.22103552 117.06515839 65.22162183 118.17098522 65.2222259 C122.83569853 64.64572718 126.12046634 62.78441078 129.63135242 59.7236383 C131.57430676 56.14860232 131.58968821 53.96024532 130.92432117 50.00098205 C129.71000351 46.42296583 127.44038499 44.5198502 124.19385242 42.8486383 C116.77316059 40.66196362 109.11688116 39.58063404 101.49463367 38.32666564 C100.0120029 38.08031531 98.52941429 37.83371109 97.04686451 37.58687377 C93.03663649 36.92028204 89.02568034 36.2581835 85.01445484 35.59762311 C82.50089124 35.18367642 79.98743537 34.7690811 77.47400379 34.35433364 C69.58831925 33.05348346 61.70213093 31.75574367 53.81528378 30.46196091 C44.75182213 28.97507176 35.69019759 27.47757455 26.63000107 25.97092068 C19.60012735 24.80260624 12.56865843 23.6442345 5.5359478 22.4931215 C1.34823172 21.80743907 -2.83871241 21.11769688 -7.02401257 20.41740584 C-10.96866076 19.75763863 -14.91517515 19.11039421 -18.86335087 18.47208762 C-20.2989978 18.2378867 -21.73396358 17.99945753 -23.16808796 17.75610709 C-44.26362981 14.18415885 -58.4233794 15.3861387 -75.50536633 28.72754455 Z M-330.80614758 34.8486383 C-330.80614758 67.8486383 -330.80614758 100.8486383 -330.80614758 134.8486383 C-274.70614758 134.8486383 -218.60614758 134.8486383 -160.80614758 134.8486383 C-160.80614758 101.8486383 -160.80614758 68.8486383 -160.80614758 34.8486383 C-216.90614758 34.8486383 -273.00614758 34.8486383 -330.80614758 34.8486383 Z M49.19385242 85.8486383 C52.64808065 89.30286652 56.10018996 92.672718 59.69385242 95.9736383 C60.61166492 96.82184142 61.52947742 97.67004455 62.47510242 98.5439508 C64.9485554 100.64069973 67.36463446 102.28026747 70.19385242 103.8486383 C73.09522969 101.79385256 75.9888935 99.72845473 78.88135242 97.6611383 C80.10628407 96.7939215 80.10628407 96.7939215 81.3559618 95.90918517 C82.15195789 95.33877501 82.94795399 94.76836486 83.76807117 94.18066955 C84.49598866 93.66222472 85.22390614 93.1437799 85.97388172 92.60962462 C88.55698517 90.56058414 90.86243758 88.18005314 93.19385242 85.8486383 C78.67385242 85.8486383 64.15385242 85.8486383 49.19385242 85.8486383 Z " fill="#3A86FF
" transform="translate(400.8061475753784,405.1513617038727)"/>
<path d="M0 0 C0.86633057 0.01208496 1.73266113 0.02416992 2.62524414 0.03662109 C48.29199999 1.38613568 90.46524436 23.57187959 122.9375 54.5 C123.76636719 55.26441406 124.59523438 56.02882812 125.44921875 56.81640625 C146.35329349 76.7106223 160.98503129 103.35528377 170.25 130.4375 C170.72022583 131.79222412 170.72022583 131.79222412 171.19995117 133.17431641 C177.02771846 150.98008494 178.58893458 168.16309258 178.45898438 186.8359375 C178.43752659 190.49546546 178.4589076 194.15303086 178.484375 197.8125 C178.50194176 211.82633792 177.52658098 224.93290452 173.9375 238.5 C173.64020996 239.62873535 173.34291992 240.7574707 173.03662109 241.92041016 C172.22488678 244.75056111 171.33395709 247.52909924 170.375 250.3125 C170.03694336 251.30330566 169.69888672 252.29411133 169.35058594 253.31494141 C161.56104636 275.40160453 150.27514607 295.7521524 134.9375 313.5 C133.89722656 314.70462891 133.89722656 314.70462891 132.8359375 315.93359375 C114.39127553 336.82233637 93.24354571 352.79438585 67.9375 364.5 C66.81214844 365.03238281 65.68679688 365.56476563 64.52734375 366.11328125 C44.56849293 375.14728741 10.46206625 387.57171234 -11.0625 379.5 C-16.52657297 376.71439417 -19.7537623 373.12730015 -22.0625 367.5 C-22.78744233 362.72644374 -22.74313149 357.97576561 -22.70414734 353.15931702 C-22.71063025 351.6986366 -22.71928726 350.2379645 -22.72992164 348.7773084 C-22.75268662 344.77641371 -22.7443691 340.77610218 -22.73078239 336.77518809 C-22.72151731 332.45536718 -22.74102535 328.13566112 -22.75675964 323.81587219 C-22.78283661 315.35825076 -22.78176175 306.90084198 -22.77072146 298.44319565 C-22.76216006 291.56844297 -22.76299617 284.69375177 -22.77051735 277.81899834 C-22.77209968 276.35080516 -22.77209968 276.35080516 -22.77371398 274.85295151 C-22.77588493 272.86447734 -22.7780717 270.8760032 -22.78027413 268.88752907 C-22.79970092 250.2444767 -22.78770906 231.60154359 -22.76548818 212.95850097 C-22.74723879 196.96712208 -22.75813953 180.97597408 -22.78979492 164.98461914 C-22.82656311 146.40941015 -22.84357724 127.83434536 -22.83038265 109.2590999 C-22.82904156 107.27767243 -22.82773258 105.29624494 -22.82645607 103.31481743 C-22.8258254 102.3399487 -22.82519474 101.36507998 -22.82454496 100.36066978 C-22.82151871 93.49587094 -22.83277362 86.63118095 -22.84970665 79.76640511 C-22.870038 71.39792271 -22.86915226 63.02976613 -22.84107425 54.66130073 C-22.82730759 50.39269688 -22.8231042 46.12466169 -22.84502411 41.8560791 C-22.86483962 37.94560303 -22.85677854 34.03619551 -22.82682977 30.12579303 C-22.82083964 28.71404318 -22.82488763 27.30220602 -22.840193 25.89052642 C-22.92750506 17.20155417 -22.18372478 10.99501991 -16.0625 4.5 C-11.2210313 0.29350483 -6.14583463 -0.14055304 0 0 Z M-2.0625 21.5 C-2.0625 34.37 -2.0625 47.24 -2.0625 60.5 C2.701875 61.9540625 2.701875 61.9540625 7.5625 63.4375 C25.68380087 69.31308839 39.40057797 79.33924657 49.1796875 96.046875 C54.28677838 106.0794713 57.11996229 115.90069989 57.0625 127.125 C57.06830078 128.2696875 57.06830078 128.2696875 57.07421875 129.4375 C57.06847136 132.71351362 56.98037441 135.37137676 55.9375 138.5 C52.98923237 139.48275588 51.01097496 139.63414725 47.9375 139.625 C46.638125 139.62886719 46.638125 139.62886719 45.3125 139.6328125 C42.9375 139.5 42.9375 139.5 39.9375 138.5 C38.69599206 134.77547619 38.01411965 131.328122 37.65234375 127.41796875 C36.32209243 114.0390043 30.9358254 101.8909844 20.9296875 92.6953125 C14.47330687 87.95838572 6.0664102 82.5 -2.0625 82.5 C-2.0625 114.84 -2.0625 147.18 -2.0625 180.5 C0.2475 181.16 2.5575 181.82 4.9375 182.5 C25.33856525 189.15206074 40.88397775 199.97511938 50.9375 219.5 C59.08601933 237.24842886 59.85943272 256.48162351 53.6875 274.9375 C49.55092256 285.45931762 43.8286878 293.44526427 35.9375 301.5 C35.34582031 302.12777344 34.75414062 302.75554687 34.14453125 303.40234375 C30.0247532 307.41298861 25.38646196 310.07685593 20.3125 312.6875 C19.69818115 313.0086377 19.0838623 313.32977539 18.45092773 313.66064453 C11.70842925 316.96570712 5.46173837 318.35021761 -2.0625 320.5 C-2.0625 333.37 -2.0625 346.24 -2.0625 359.5 C4.38343196 359.5 10.07264033 359.45078815 16.3125 358.375 C17.07288574 358.24448242 17.83327148 358.11396484 18.61669922 357.97949219 C33.73472683 355.20390479 48.13708481 350.20820477 61.9375 343.5 C62.62408691 343.17161133 63.31067383 342.84322266 64.01806641 342.50488281 C79.33988257 335.09552694 92.66904899 325.28544113 104.9375 313.5 C105.67299072 312.81115723 105.67299072 312.81115723 106.42333984 312.10839844 C137.50799818 282.92532233 155.90729535 241.5571968 158.06347656 199.0144043 C159.47522271 153.36049953 144.55831364 109.76011858 113.390625 76.0859375 C112.58109375 75.23257813 111.7715625 74.37921875 110.9375 73.5 C110.47537109 73.00532227 110.01324219 72.51064453 109.53710938 72.00097656 C96.80363944 58.44141651 82.47258956 47.97393572 65.9375 39.5 C64.92284668 38.9743042 64.92284668 38.9743042 63.88769531 38.43798828 C49.34368713 30.98736151 34.43063039 26.13194729 18.375 23.125 C17.48337158 22.95709961 16.59174316 22.78919922 15.6730957 22.61621094 C9.51419107 21.55109829 4.44250277 21.5 -2.0625 21.5 Z M-2.0625 202.5 C-2.0625 234.18 -2.0625 265.86 -2.0625 298.5 C10.24836201 296.74130543 20.39747698 290.43795552 27.9375 280.5 C36.27729021 266.79155572 39.45516572 253.05955527 36.25390625 237.08984375 C35.32695582 234.41668793 34.25779439 232.00074452 32.9375 229.5 C32.30134766 228.2315625 32.30134766 228.2315625 31.65234375 226.9375 C24.81200095 214.43815493 14.88017577 207.69121531 1.9375 202.5 C0.6175 202.5 -0.7025 202.5 -2.0625 202.5 Z " fill="#3A86FF" transform="translate(472.0625,-0.5)"/>
<path d="M0 0 C0.75055664 -0.02698975 1.50111328 -0.05397949 2.27441406 -0.08178711 C7.94668589 -0.04138083 12.42929235 1.60430909 16.5625 5.5625 C22.50837717 12.29447187 22.27371351 19.30835957 22.20414734 27.90318298 C22.21063025 29.3638634 22.21928726 30.8245355 22.22992164 32.2851916 C22.25268662 36.28608629 22.2443691 40.28639782 22.23078239 44.28731191 C22.22151731 48.60713282 22.24102535 52.92683888 22.25675964 57.24662781 C22.28283661 65.70424924 22.28176175 74.16165802 22.27072146 82.61930435 C22.26216006 89.49405703 22.26299617 96.36874823 22.27051735 103.24350166 C22.27157224 104.22229712 22.27262713 105.20109257 22.27371398 106.20954849 C22.27588493 108.19802266 22.2780717 110.1864968 22.28027413 112.17497093 C22.29970092 130.8180233 22.28770906 149.46095641 22.26548818 168.10399903 C22.24723879 184.09537792 22.25813953 200.08652592 22.28979492 216.07788086 C22.32656311 234.65308985 22.34357724 253.22815464 22.33038265 271.8034001 C22.32904156 273.78482757 22.32773258 275.76625506 22.32645607 277.74768257 C22.32551007 279.20998566 22.32551007 279.20998566 22.32454496 280.70183022 C22.32151871 287.56662906 22.33277362 294.43131905 22.34970665 301.29609489 C22.370038 309.66457729 22.36915226 318.03273387 22.34107425 326.40119927 C22.32730759 330.66980312 22.3231042 334.93783831 22.34502411 339.2064209 C22.36483962 343.11689697 22.35677854 347.02630449 22.32682977 350.93670697 C22.32083964 352.34845682 22.32488763 353.76029398 22.340193 355.17197358 C22.4274505 363.85551645 21.6890686 370.07565088 15.5625 376.5625 C10.85503912 380.60293112 6.03058977 381.20885125 0.0625 381.0625 C-0.75573242 381.04968994 -1.57396484 381.03687988 -2.41699219 381.02368164 C-46.36495062 379.63224402 -88.54715782 358.99816408 -119.95800781 328.97460938 C-120.9391484 328.0381544 -121.92545247 327.10707769 -122.91699219 326.18164062 C-154.46091565 296.69628567 -176.18666197 251.74211197 -178.55151367 208.47659302 C-178.61711133 206.27573434 -178.65375463 204.07672527 -178.67578125 201.875 C-178.6855751 201.06319275 -178.69536896 200.2513855 -178.70545959 199.41497803 C-178.94930342 173.95264466 -176.82557974 150.77318101 -168.4375 126.5625 C-168.10177979 125.58458496 -168.10177979 125.58458496 -167.75927734 124.58691406 C-159.00877733 99.68817989 -144.39252863 77.71453054 -126.4375 58.5625 C-125.97778809 58.06878906 -125.51807617 57.57507812 -125.04443359 57.06640625 C-93.3657552 23.3150943 -46.54392685 0.99078656 0 0 Z M-91.4375 55.5625 C-92.36304688 56.26632813 -93.28859375 56.97015625 -94.2421875 57.6953125 C-125.52839627 82.2708562 -145.02503183 116.2713886 -154.4375 154.5625 C-154.70651123 155.60083984 -154.70651123 155.60083984 -154.98095703 156.66015625 C-164.18971578 193.45861225 -156.55424215 237.03563485 -138.42431641 269.77734375 C-137.43976303 271.55840616 -136.49014841 273.35508805 -135.54296875 275.15625 C-128.20109019 288.84252041 -118.14572433 300.4055206 -107.4375 311.5625 C-106.64158447 312.39454956 -106.64158447 312.39454956 -105.82958984 313.2434082 C-82.92457093 336.73415874 -50.76469366 352.07418365 -18.75 358 C-17.42440063 358.24592896 -17.42440063 358.24592896 -16.07202148 358.49682617 C-9.96333838 359.52946664 -4.87590705 359.5625 1.5625 359.5625 C1.5625 346.6925 1.5625 333.8225 1.5625 320.5625 C-0.7475 319.9025 -3.0575 319.2425 -5.4375 318.5625 C-25.77917318 311.9298049 -41.48921431 301.10535456 -51.4375 281.5625 C-55.43807081 272.34526207 -57.61362643 263.92419615 -57.5625 253.9375 C-57.56636719 253.174375 -57.57023437 252.41125 -57.57421875 251.625 C-57.56847136 248.34898638 -57.48037441 245.69112324 -56.4375 242.5625 C-53.48923237 241.57974412 -51.51097496 241.42835275 -48.4375 241.4375 C-47.57125 241.43492187 -46.705 241.43234375 -45.8125 241.4296875 C-43.4375 241.5625 -43.4375 241.5625 -40.4375 242.5625 C-39.19599206 246.28702381 -38.51411965 249.734378 -38.15234375 253.64453125 C-36.84940915 266.74875856 -31.69817919 278.8009322 -21.79296875 287.734375 C-15.28296423 292.78691582 -6.96561489 298.5625 1.5625 298.5625 C1.5625 266.2225 1.5625 233.8825 1.5625 200.5625 C-1.54760145 199.52579952 -4.66237464 198.49769238 -7.8125 197.58984375 C-25.97156192 192.1303844 -40.07576273 181.59900776 -49.68359375 164.96484375 C-58.6533503 147.56471467 -60.6236875 128.64531789 -55.39453125 109.8046875 C-51.35424817 97.69691362 -45.33313773 88.64250328 -36.4375 79.5625 C-35.84582031 78.93472656 -35.25414062 78.30695313 -34.64453125 77.66015625 C-30.5247532 73.64951139 -25.88646196 70.98564407 -20.8125 68.375 C-20.19818115 68.0538623 -19.5838623 67.73272461 -18.95092773 67.40185547 C-12.20842925 64.09679288 -5.96173837 62.71228239 1.5625 60.5625 C1.5625 47.3625 1.5625 34.1625 1.5625 20.5625 C-31.2023135 20.5625 -66.06019802 35.76690639 -91.4375 55.5625 Z M-23.9375 95.0625 C-35.27622686 107.37969567 -38.08293176 121.19986015 -37.56933594 137.33691406 C-37.30583085 141.78527036 -36.27939174 145.52854698 -34.4375 149.5625 C-33.85162109 150.8928125 -33.85162109 150.8928125 -33.25390625 152.25 C-26.64677921 165.72629311 -16.05359047 173.18219052 -2.4375 178.5625 C-1.1175 178.5625 0.2025 178.5625 1.5625 178.5625 C1.5625 146.8825 1.5625 115.2025 1.5625 82.5625 C-7.37206872 82.5625 -17.48632532 89.13385038 -23.9375 95.0625 Z " fill="#3A86FF
" transform="translate(328.4375,-0.5625)"/>
<path d="M0 0 C1.63630371 -0.00717545 1.63630371 -0.00717545 3.30566406 -0.01449585 C5.60873865 -0.01789363 7.91186155 -0.00869993 10.21484375 0.01220703 C13.73807417 0.0389719 17.25811856 0.01245249 20.78125 -0.01953125 C23.02084036 -0.01622713 25.26042874 -0.00982087 27.5 0 C29.0782959 -0.01518173 29.0782959 -0.01518173 30.68847656 -0.03067017 C37.98394523 0.08612002 37.98394523 0.08612002 41.91162109 3.04931641 C43.90180869 5.87998163 44.42849626 7.24030213 44.375 10.6640625 C44.38789063 11.4890625 44.40078125 12.3140625 44.4140625 13.1640625 C43.4001428 16.98117195 41.9127464 18.27795962 38.75 20.6640625 C35.00329723 21.41549442 31.31113404 21.36478455 27.5 21.328125 C26.40913086 21.33290863 25.31826172 21.33769226 24.19433594 21.34262085 C21.89126135 21.34601863 19.58813845 21.33682493 17.28515625 21.31591797 C13.76192583 21.2891531 10.24188144 21.31567251 6.71875 21.34765625 C4.47915964 21.34435213 2.23957126 21.33794587 0 21.328125 C-1.05219727 21.33824615 -2.10439453 21.34836731 -3.18847656 21.35879517 C-10.48394523 21.24200498 -10.48394523 21.24200498 -14.41162109 18.27880859 C-16.40180869 15.44814337 -16.92849626 14.08782287 -16.875 10.6640625 C-16.88789063 9.8390625 -16.90078125 9.0140625 -16.9140625 8.1640625 C-14.61326817 -0.49775146 -7.43719146 -0.07153883 0 0 Z " fill="#3A86FF
" transform="translate(386.25,319.3359375)"/>
<path d="M0 0 C1.63630371 -0.00717545 1.63630371 -0.00717545 3.30566406 -0.01449585 C5.60873865 -0.01789363 7.91186155 -0.00869993 10.21484375 0.01220703 C13.73807417 0.0389719 17.25811856 0.01245249 20.78125 -0.01953125 C23.02084036 -0.01622713 25.26042874 -0.00982087 27.5 0 C29.0782959 -0.01518173 29.0782959 -0.01518173 30.68847656 -0.03067017 C37.98394523 0.08612002 37.98394523 0.08612002 41.91162109 3.04931641 C43.90180869 5.87998163 44.42849626 7.24030213 44.375 10.6640625 C44.38789063 11.4890625 44.40078125 12.3140625 44.4140625 13.1640625 C43.4001428 16.98117195 41.9127464 18.27795962 38.75 20.6640625 C35.00329723 21.41549442 31.31113404 21.36478455 27.5 21.328125 C26.40913086 21.33290863 25.31826172 21.33769226 24.19433594 21.34262085 C21.89126135 21.34601863 19.58813845 21.33682493 17.28515625 21.31591797 C13.76192583 21.2891531 10.24188144 21.31567251 6.71875 21.34765625 C4.47915964 21.34435213 2.23957126 21.33794587 0 21.328125 C-1.05219727 21.33824615 -2.10439453 21.34836731 -3.18847656 21.35879517 C-10.48394523 21.24200498 -10.48394523 21.24200498 -14.41162109 18.27880859 C-16.40180869 15.44814337 -16.92849626 14.08782287 -16.875 10.6640625 C-16.88789063 9.8390625 -16.90078125 9.0140625 -16.9140625 8.1640625 C-14.61326817 -0.49775146 -7.43719146 -0.07153883 0 0 Z " fill="#3A86FF
" transform="translate(386.25,239.3359375)"/>
<path d="M0 0 C1.63630371 -0.00717545 1.63630371 -0.00717545 3.30566406 -0.01449585 C5.60873865 -0.01789363 7.91186155 -0.00869993 10.21484375 0.01220703 C13.73807417 0.0389719 17.25811856 0.01245249 20.78125 -0.01953125 C23.02084036 -0.01622713 25.26042874 -0.00982087 27.5 0 C29.0782959 -0.01518173 29.0782959 -0.01518173 30.68847656 -0.03067017 C37.98394523 0.08612002 37.98394523 0.08612002 41.91162109 3.04931641 C43.90180869 5.87998163 44.42849626 7.24030213 44.375 10.6640625 C44.38789063 11.4890625 44.40078125 12.3140625 44.4140625 13.1640625 C43.4001428 16.98117195 41.9127464 18.27795962 38.75 20.6640625 C35.00329723 21.41549442 31.31113404 21.36478455 27.5 21.328125 C26.40913086 21.33290863 25.31826172 21.33769226 24.19433594 21.34262085 C21.89126135 21.34601863 19.58813845 21.33682493 17.28515625 21.31591797 C13.76192583 21.2891531 10.24188144 21.31567251 6.71875 21.34765625 C4.47915964 21.34435213 2.23957126 21.33794587 0 21.328125 C-1.05219727 21.33824615 -2.10439453 21.34836731 -3.18847656 21.35879517 C-10.48394523 21.24200498 -10.48394523 21.24200498 -14.41162109 18.27880859 C-16.40180869 15.44814337 -16.92849626 14.08782287 -16.875 10.6640625 C-16.88789063 9.8390625 -16.90078125 9.0140625 -16.9140625 8.1640625 C-14.61326817 -0.49775146 -7.43719146 -0.07153883 0 0 Z " fill="#3A86FF
" transform="translate(386.25,159.3359375)"/>
<path d="M0 0 C1.63630371 -0.00717545 1.63630371 -0.00717545 3.30566406 -0.01449585 C5.60873865 -0.01789363 7.91186155 -0.00869993 10.21484375 0.01220703 C13.73807417 0.0389719 17.25811856 0.01245249 20.78125 -0.01953125 C23.02084036 -0.01622713 25.26042874 -0.00982087 27.5 0 C29.0782959 -0.01518173 29.0782959 -0.01518173 30.68847656 -0.03067017 C37.98394523 0.08612002 37.98394523 0.08612002 41.91162109 3.04931641 C43.90180869 5.87998163 44.42849626 7.24030213 44.375 10.6640625 C44.38789063 11.4890625 44.40078125 12.3140625 44.4140625 13.1640625 C43.4001428 16.98117195 41.9127464 18.27795962 38.75 20.6640625 C35.00329723 21.41549442 31.31113404 21.36478455 27.5 21.328125 C26.40913086 21.33290863 25.31826172 21.33769226 24.19433594 21.34262085 C21.89126135 21.34601863 19.58813845 21.33682493 17.28515625 21.31591797 C13.76192583 21.2891531 10.24188144 21.31567251 6.71875 21.34765625 C4.47915964 21.34435213 2.23957126 21.33794587 0 21.328125 C-1.05219727 21.33824615 -2.10439453 21.34836731 -3.18847656 21.35879517 C-10.48394523 21.24200498 -10.48394523 21.24200498 -14.41162109 18.27880859 C-16.40180869 15.44814337 -16.92849626 14.08782287 -16.875 10.6640625 C-16.88789063 9.8390625 -16.90078125 9.0140625 -16.9140625 8.1640625 C-14.61326817 -0.49775146 -7.43719146 -0.07153883 0 0 Z " fill="#3A86FF
" transform="translate(386.25,79.3359375)"/>
<path d="M0 0 C0.86890869 -0.00478363 1.73781738 -0.00956726 2.63305664 -0.01449585 C4.46535051 -0.01788975 6.29770535 -0.00872294 8.12988281 0.01220703 C10.92911219 0.03898227 13.72433233 0.01244447 16.5234375 -0.01953125 C18.30730049 -0.01622706 20.09116099 -0.00982063 21.875 0 C23.12518921 -0.01518173 23.12518921 -0.01518173 24.40063477 -0.03067017 C28.74020645 0.0565336 30.44035852 0.27204698 33.96240234 3.04931641 C36.10748248 5.88909494 36.61736039 7.15299724 36.5625 10.6640625 C36.57539063 11.4890625 36.58828125 12.3140625 36.6015625 13.1640625 C35.61158843 16.89102371 33.95557907 18.28418901 30.9375 20.6640625 C27.91318923 21.39057422 24.97435101 21.36576212 21.875 21.328125 C20.57163696 21.33530045 20.57163696 21.33530045 19.24194336 21.34262085 C17.40964949 21.34601475 15.57729465 21.33684794 13.74511719 21.31591797 C10.94588781 21.28914273 8.15066767 21.31568053 5.3515625 21.34765625 C3.56769951 21.34435206 1.78383901 21.33794563 0 21.328125 C-1.25018921 21.34330673 -1.25018921 21.34330673 -2.52563477 21.35879517 C-6.86520645 21.2715914 -8.56535852 21.05607802 -12.08740234 18.27880859 C-14.23248248 15.43903006 -14.74236039 14.17512776 -14.6875 10.6640625 C-14.70039063 9.8390625 -14.71328125 9.0140625 -14.7265625 8.1640625 C-12.67185401 0.42868934 -6.81480242 -0.08275588 0 0 Z " fill="#3A86FF
" transform="translate(384.0625,39.3359375)"/>
<path d="M0 0 C1.31484375 -0.00644531 2.6296875 -0.01289063 3.984375 -0.01953125 C5.0043457 -0.0038208 5.0043457 -0.0038208 6.04492188 0.01220703 C8.12034681 0.03900242 10.19036676 0.01243363 12.265625 -0.01953125 C14.23789062 -0.00986328 14.23789062 -0.00986328 16.25 0 C17.44882812 0.00563965 18.64765625 0.0112793 19.8828125 0.01708984 C24.01623205 0.84190625 25.51135883 2.42798193 28.125 5.6640625 C28.7890625 8.1640625 28.7890625 8.1640625 28.75 10.6640625 C28.76289063 11.4890625 28.77578125 12.3140625 28.7890625 13.1640625 C27.82020825 16.8115138 26.01119791 18.2804485 23.125 20.6640625 C19.8828125 21.31103516 19.8828125 21.31103516 16.25 21.328125 C14.93515625 21.33457031 13.6203125 21.34101563 12.265625 21.34765625 C11.58564453 21.33718262 10.90566406 21.32670898 10.20507812 21.31591797 C8.12965319 21.28912258 6.05963324 21.31569137 3.984375 21.34765625 C2.01210938 21.33798828 2.01210938 21.33798828 0 21.328125 C-1.79824219 21.31966553 -1.79824219 21.31966553 -3.6328125 21.31103516 C-7.76623205 20.48621875 -9.26135883 18.90014307 -11.875 15.6640625 C-12.5390625 13.1640625 -12.5390625 13.1640625 -12.5 10.6640625 C-12.51289063 9.8390625 -12.52578125 9.0140625 -12.5390625 8.1640625 C-10.81550818 1.67538743 -6.17617823 0.0290546 0 0 Z " fill="#3A86FF
" transform="translate(381.875,279.3359375)"/>
<path d="M0 0 C1.31484375 -0.00644531 2.6296875 -0.01289063 3.984375 -0.01953125 C5.0043457 -0.0038208 5.0043457 -0.0038208 6.04492188 0.01220703 C8.12034681 0.03900242 10.19036676 0.01243363 12.265625 -0.01953125 C14.23789062 -0.00986328 14.23789062 -0.00986328 16.25 0 C17.44882812 0.00563965 18.64765625 0.0112793 19.8828125 0.01708984 C24.01623205 0.84190625 25.51135883 2.42798193 28.125 5.6640625 C28.7890625 8.1640625 28.7890625 8.1640625 28.75 10.6640625 C28.76289063 11.4890625 28.77578125 12.3140625 28.7890625 13.1640625 C27.82020825 16.8115138 26.01119791 18.2804485 23.125 20.6640625 C19.8828125 21.31103516 19.8828125 21.31103516 16.25 21.328125 C14.93515625 21.33457031 13.6203125 21.34101563 12.265625 21.34765625 C11.58564453 21.33718262 10.90566406 21.32670898 10.20507812 21.31591797 C8.12965319 21.28912258 6.05963324 21.31569137 3.984375 21.34765625 C2.01210938 21.33798828 2.01210938 21.33798828 0 21.328125 C-1.79824219 21.31966553 -1.79824219 21.31966553 -3.6328125 21.31103516 C-7.76623205 20.48621875 -9.26135883 18.90014307 -11.875 15.6640625 C-12.5390625 13.1640625 -12.5390625 13.1640625 -12.5 10.6640625 C-12.51289063 9.8390625 -12.52578125 9.0140625 -12.5390625 8.1640625 C-10.81550818 1.67538743 -6.17617823 0.0290546 0 0 Z " fill="#3A86FF
" transform="translate(401.875,199.3359375)"/>
<path d="M0 0 C1.31484375 -0.00644531 2.6296875 -0.01289062 3.984375 -0.01953125 C5.0043457 -0.0038208 5.0043457 -0.0038208 6.04492188 0.01220703 C8.12034681 0.03900242 10.19036676 0.01243363 12.265625 -0.01953125 C14.23789062 -0.00986328 14.23789062 -0.00986328 16.25 0 C17.44882812 0.00563965 18.64765625 0.0112793 19.8828125 0.01708984 C24.01623205 0.84190625 25.51135883 2.42798193 28.125 5.6640625 C28.7890625 8.1640625 28.7890625 8.1640625 28.75 10.6640625 C28.76289063 11.4890625 28.77578125 12.3140625 28.7890625 13.1640625 C27.82020825 16.8115138 26.01119791 18.2804485 23.125 20.6640625 C19.8828125 21.31103516 19.8828125 21.31103516 16.25 21.328125 C14.93515625 21.33457031 13.6203125 21.34101563 12.265625 21.34765625 C11.58564453 21.33718262 10.90566406 21.32670898 10.20507812 21.31591797 C8.12965319 21.28912258 6.05963324 21.31569137 3.984375 21.34765625 C2.01210938 21.33798828 2.01210938 21.33798828 0 21.328125 C-1.79824219 21.31966553 -1.79824219 21.31966553 -3.6328125 21.31103516 C-7.76623205 20.48621875 -9.26135883 18.90014307 -11.875 15.6640625 C-12.5390625 13.1640625 -12.5390625 13.1640625 -12.5 10.6640625 C-12.51289063 9.8390625 -12.52578125 9.0140625 -12.5390625 8.1640625 C-10.81550818 1.67538743 -6.17617823 0.0290546 0 0 Z " fill="#3A86FF
" transform="translate(381.875,119.3359375)"/>
</svg>
